<mxfile host="app.diagrams.net" modified="2024-07-10T02:04:43.610Z" agent="Mozilla/5.0 (Windows NT 10.0; Win64; x64) AppleWebKit/537.36 (KHTML, like Gecko) Chrome/126.0.0.0 Safari/537.36" etag="YOA4b5KI87IbY7Rof0Xg" version="24.6.4" type="github">
  <diagram name="第 1 页" id="WTSStRV4slc1EK4bCNR-">
    <mxGraphModel dx="989" dy="514" grid="1" gridSize="10" guides="1" tooltips="1" connect="1" arrows="1" fold="1" page="1" pageScale="1" pageWidth="827" pageHeight="1169" math="0" shadow="0">
      <root>
        <mxCell id="0" />
        <mxCell id="1" parent="0" />
        <mxCell id="d_p5sX85n0oFFNOLXNGx-10" style="edgeStyle=orthogonalEdgeStyle;rounded=0;orthogonalLoop=1;jettySize=auto;html=1;entryX=0;entryY=0.5;entryDx=0;entryDy=0;" edge="1" parent="1" source="d_p5sX85n0oFFNOLXNGx-1" target="d_p5sX85n0oFFNOLXNGx-3">
          <mxGeometry relative="1" as="geometry">
            <Array as="points">
              <mxPoint x="150" y="440" />
            </Array>
          </mxGeometry>
        </mxCell>
        <mxCell id="d_p5sX85n0oFFNOLXNGx-1" value="api-gateway-center" style="rounded=0;whiteSpace=wrap;html=1;" vertex="1" parent="1">
          <mxGeometry x="90" y="240" width="120" height="60" as="geometry" />
        </mxCell>
        <mxCell id="d_p5sX85n0oFFNOLXNGx-5" style="edgeStyle=orthogonalEdgeStyle;rounded=0;orthogonalLoop=1;jettySize=auto;html=1;entryX=1;entryY=0.5;entryDx=0;entryDy=0;" edge="1" parent="1" source="d_p5sX85n0oFFNOLXNGx-2" target="d_p5sX85n0oFFNOLXNGx-1">
          <mxGeometry relative="1" as="geometry" />
        </mxCell>
        <mxCell id="d_p5sX85n0oFFNOLXNGx-8" style="edgeStyle=orthogonalEdgeStyle;rounded=0;orthogonalLoop=1;jettySize=auto;html=1;entryX=0.5;entryY=0;entryDx=0;entryDy=0;dashed=1;" edge="1" parent="1" source="d_p5sX85n0oFFNOLXNGx-2" target="d_p5sX85n0oFFNOLXNGx-1">
          <mxGeometry relative="1" as="geometry">
            <Array as="points">
              <mxPoint x="450" y="180" />
              <mxPoint x="150" y="180" />
            </Array>
          </mxGeometry>
        </mxCell>
        <mxCell id="d_p5sX85n0oFFNOLXNGx-2" value="RPC" style="rounded=0;whiteSpace=wrap;html=1;" vertex="1" parent="1">
          <mxGeometry x="390" y="240" width="120" height="60" as="geometry" />
        </mxCell>
        <mxCell id="d_p5sX85n0oFFNOLXNGx-16" style="edgeStyle=orthogonalEdgeStyle;rounded=0;orthogonalLoop=1;jettySize=auto;html=1;entryX=0.5;entryY=0;entryDx=0;entryDy=0;" edge="1" parent="1" source="d_p5sX85n0oFFNOLXNGx-3" target="d_p5sX85n0oFFNOLXNGx-4">
          <mxGeometry relative="1" as="geometry" />
        </mxCell>
        <mxCell id="d_p5sX85n0oFFNOLXNGx-3" value="api-gateway-assist" style="rounded=0;whiteSpace=wrap;html=1;" vertex="1" parent="1">
          <mxGeometry x="240" y="410" width="120" height="60" as="geometry" />
        </mxCell>
        <mxCell id="d_p5sX85n0oFFNOLXNGx-4" value="api-gateway-core" style="rounded=0;whiteSpace=wrap;html=1;" vertex="1" parent="1">
          <mxGeometry x="240" y="550" width="120" height="60" as="geometry" />
        </mxCell>
        <mxCell id="d_p5sX85n0oFFNOLXNGx-7" value="1、配置信息上传注册" style="text;html=1;align=center;verticalAlign=middle;resizable=0;points=[];autosize=1;strokeColor=none;fillColor=none;" vertex="1" parent="1">
          <mxGeometry x="220" y="240" width="140" height="30" as="geometry" />
        </mxCell>
        <mxCell id="d_p5sX85n0oFFNOLXNGx-9" value="2、注册完成后，调用doRegisterEvent通知注册中心" style="text;html=1;align=center;verticalAlign=middle;resizable=0;points=[];autosize=1;strokeColor=none;fillColor=none;" vertex="1" parent="1">
          <mxGeometry x="140" y="148" width="300" height="30" as="geometry" />
        </mxCell>
        <mxCell id="d_p5sX85n0oFFNOLXNGx-11" value="3、注册中心推送消息" style="text;html=1;align=center;verticalAlign=middle;resizable=0;points=[];autosize=1;strokeColor=none;fillColor=none;rotation=90;" vertex="1" parent="1">
          <mxGeometry x="60" y="360" width="140" height="30" as="geometry" />
        </mxCell>
        <mxCell id="d_p5sX85n0oFFNOLXNGx-12" style="edgeStyle=orthogonalEdgeStyle;rounded=0;orthogonalLoop=1;jettySize=auto;html=1;entryX=0.801;entryY=1.031;entryDx=0;entryDy=0;entryPerimeter=0;" edge="1" parent="1" source="d_p5sX85n0oFFNOLXNGx-3" target="d_p5sX85n0oFFNOLXNGx-1">
          <mxGeometry relative="1" as="geometry">
            <Array as="points">
              <mxPoint x="186" y="420" />
            </Array>
          </mxGeometry>
        </mxCell>
        <mxCell id="d_p5sX85n0oFFNOLXNGx-13" value="4、接收消息，拉取配置" style="text;html=1;align=center;verticalAlign=middle;resizable=0;points=[];autosize=1;strokeColor=none;fillColor=none;rotation=90;" vertex="1" parent="1">
          <mxGeometry x="125" y="360" width="150" height="30" as="geometry" />
        </mxCell>
        <mxCell id="d_p5sX85n0oFFNOLXNGx-14" style="edgeStyle=orthogonalEdgeStyle;rounded=0;orthogonalLoop=1;jettySize=auto;html=1;entryX=0.459;entryY=0.025;entryDx=0;entryDy=0;entryPerimeter=0;" edge="1" parent="1" source="d_p5sX85n0oFFNOLXNGx-1" target="d_p5sX85n0oFFNOLXNGx-3">
          <mxGeometry relative="1" as="geometry">
            <Array as="points">
              <mxPoint x="295" y="290" />
            </Array>
          </mxGeometry>
        </mxCell>
        <mxCell id="d_p5sX85n0oFFNOLXNGx-15" value="5、返回配置" style="text;html=1;align=center;verticalAlign=middle;resizable=0;points=[];autosize=1;strokeColor=none;fillColor=none;" vertex="1" parent="1">
          <mxGeometry x="290" y="330" width="90" height="30" as="geometry" />
        </mxCell>
        <mxCell id="d_p5sX85n0oFFNOLXNGx-17" value="6、应用配置" style="text;html=1;align=center;verticalAlign=middle;resizable=0;points=[];autosize=1;strokeColor=none;fillColor=none;" vertex="1" parent="1">
          <mxGeometry x="290" y="490" width="90" height="30" as="geometry" />
        </mxCell>
      </root>
    </mxGraphModel>
  </diagram>
</mxfile>
